<?xml version="1.0" standalone="no"?><!DOCTYPE svg PUBLIC "-//W3C//DTD SVG 1.1//EN" "http://www.w3.org/Graphics/SVG/1.1/DTD/svg11.dtd"><svg height="1024" node-id="1" sillyvg="true" template-height="1024" template-width="1024" version="1.1" viewBox="0 0 1024 1024" width="1024" xmlns="http://www.w3.org/2000/svg" xmlns:xlink="http://www.w3.org/1999/xlink"><defs node-id="131"><linearGradient gradientUnits="objectBoundingBox" id="SVGID_1_" node-id="53" spreadMethod="pad" x1="0.7949" x2="0.7949" y1="1024.727" y2="1023.85"><stop offset="0" stop-color="#ffffff"></stop><stop offset="1" stop-color="#ffffff" stop-opacity="0"></stop></linearGradient><linearGradient gradientUnits="objectBoundingBox" id="SVGID_3_" node-id="60" spreadMethod="pad" x1="1.137" x2="1.3707" y1="1024.2015" y2="1023.3615"><stop offset="0.0723628" stop-color="#17bbfe"></stop><stop offset="0.2085" stop-color="#d1f2ff"></stop><stop offset="0.668" stop-color="#80dafe"></stop><stop offset="1" stop-color="#0099d6"></stop></linearGradient><linearGradient gradientUnits="objectBoundingBox" id="SVGID_4_" node-id="66" spreadMethod="pad" x1="212.4412" x2="168.4081" y1="552.56" y2="650.8182"><stop offset="0" stop-color="#d1f2ff"></stop><stop offset="0.668" stop-color="#80dafe"></stop><stop offset="1" stop-color="#0099d6"></stop></linearGradient><linearGradient gradientUnits="objectBoundingBox" id="SVGID_5_" node-id="71" spreadMethod="pad" x1="1.1579" x2="1.597" y1="1023.9753" y2="1023.4469"><stop offset="0.566" stop-color="#80dafe"></stop><stop offset="1" stop-color="#0099d6"></stop></linearGradient><linearGradient gradientUnits="objectBoundingBox" id="SVGID_6_" node-id="75" spreadMethod="pad" x1="1.1462" x2="1.6171" y1="1023.9427" y2="1023.4421"><stop offset="0.566" stop-color="#80dafe"></stop><stop offset="1" stop-color="#0099d6"></stop></linearGradient><linearGradient gradientUnits="objectBoundingBox" id="SVGID_8_" node-id="83" spreadMethod="pad" x1="205.3241" x2="143.6873" y1="1295.767" y2="1213.8363"><stop offset="0.0723628" stop-color="#17bbfe"></stop><stop offset="0.2085" stop-color="#d1f2ff"></stop><stop offset="0.668" stop-color="#80dafe"></stop><stop offset="1" stop-color="#0099d6"></stop></linearGradient><linearGradient gradientUnits="objectBoundingBox" id="SVGID_9_" node-id="89" spreadMethod="pad" x1="40.2092" x2="114.2634" y1="1095.978" y2="1231.7075"><stop offset="0" stop-color="#d1f2ff"></stop><stop offset="0.668" stop-color="#80dafe"></stop><stop offset="1" stop-color="#0099d6"></stop></linearGradient><linearGradient gradientUnits="objectBoundingBox" id="SVGID_10_" node-id="94" spreadMethod="pad" x1="1.5009" x2="-28.7166" y1="1025.9696" y2="895.5527"><stop offset="0.566" stop-color="#80dafe"></stop><stop offset="1" stop-color="#0099d6"></stop></linearGradient><linearGradient gradientUnits="objectBoundingBox" id="SVGID_11_" node-id="98" spreadMethod="pad" x1="-8.346" x2="-27.3961" y1="967.3825" y2="852.8529"><stop offset="0.566" stop-color="#80dafe"></stop><stop offset="1" stop-color="#0099d6"></stop></linearGradient><linearGradient gradientUnits="objectBoundingBox" id="SVGID_13_" node-id="106" spreadMethod="pad" x1="557.5178" x2="407.3008" y1="1309.1316" y2="1232.2855"><stop offset="0.0723628" stop-color="#17bbfe"></stop><stop offset="0.2085" stop-color="#d1f2ff"></stop><stop offset="0.668" stop-color="#80dafe"></stop><stop offset="1" stop-color="#0099d6"></stop></linearGradient><linearGradient gradientUnits="objectBoundingBox" id="SVGID_14_" node-id="112" spreadMethod="pad" x1="228.3816" x2="434.4472" y1="1187.3688" y2="1335.0562"><stop offset="0" stop-color="#d1f2ff"></stop><stop offset="0.668" stop-color="#80dafe"></stop><stop offset="1" stop-color="#0099d6"></stop></linearGradient><linearGradient gradientUnits="objectBoundingBox" id="SVGID_15_" node-id="117" spreadMethod="pad" x1="179.6966" x2="43.8723" y1="1247.9641" y2="1077.9656"><stop offset="0.566" stop-color="#80dafe"></stop><stop offset="1" stop-color="#0099d6"></stop></linearGradient><linearGradient gradientUnits="objectBoundingBox" id="SVGID_16_" node-id="121" spreadMethod="pad" x1="126.6032" x2="18.5124" y1="1203.4967" y2="1049.2661"><stop offset="0.566" stop-color="#80dafe"></stop><stop offset="1" stop-color="#0099d6"></stop></linearGradient><radialGradient cx="0.8071" cy="1024.2491" fx="0.8071" fy="1024.2491" gradientUnits="objectBoundingBox" id="SVGID_7_" node-id="79" r="0.8771" rev="3" spreadMethod="pad"><stop offset="0" stop-color="#ffffff" stop-opacity="0.45"></stop><stop offset="1" stop-color="#ffffff" stop-opacity="0"></stop></radialGradient><radialGradient cx="0.692" cy="1024.6818" fx="0.692" fy="1024.6818" gradientUnits="objectBoundingBox" id="SVGID_12_" node-id="102" r="0.8771" rev="2" spreadMethod="pad"><stop offset="0" stop-color="#ffffff" stop-opacity="0.45"></stop><stop offset="1" stop-color="#ffffff" stop-opacity="0"></stop></radialGradient><radialGradient cx="0.7294" cy="1024.914" fx="0.7294" fy="1024.914" gradientUnits="objectBoundingBox" id="SVGID_17_" node-id="125" r="0.8771" rev="1" spreadMethod="pad"><stop offset="0" stop-color="#ffffff" stop-opacity="0.45"></stop><stop offset="1" stop-color="#ffffff" stop-opacity="0"></stop></radialGradient></defs><path d="M 0.00 0.00 L 1024.00 0.00 L 1024.00 1024.00 L 0.00 1024.00 Z" fill="#e81d43" fill-rule="nonzero" node-id="248" stroke="none" target-height="1024" target-width="1024" target-x="0" target-y="0"></path><g node-id="406"><g node-id="416"><path d="M 180.70 584.10 C 180.70 584.10 114.90 654.20 107.20 744.90 C 100.90 818.40 148.70 819.40 163.10 813.40 C 192.40 801.10 222.00 741.80 218.90 693.20" fill="#ff7200" fill-rule="nonzero" group-id="1,11" node-id="254" stroke="none" target-height="235.30005" target-width="121.1" target-x="100.9" target-y="584.1"></path><path d="M 150.10 827.20 C 140.20 827.20 129.10 824.40 119.40 817.40 C 106.50 808.10 92.00 787.70 95.80 744.00 C 103.80 650.40 169.50 579.30 172.40 576.40 C 176.70 571.80 183.90 571.60 188.50 575.90 C 193.10 580.20 193.30 587.40 189.00 592.00 C 188.00 593.10 125.80 660.70 118.50 746.00 C 116.20 772.20 121.20 790.50 132.90 799.00 C 142.60 806.00 154.70 804.70 158.70 803.00 C 186.70 791.20 209.90 731.60 207.50 694.10 C 207.10 687.90 211.90 682.40 218.10 682.00 C 224.30 681.70 229.80 686.40 230.20 692.60 C 233.50 744.20 202.50 809.30 167.50 824.00 C 162.80 826.00 156.60 827.20 150.10 827.20 Z" fill="#ff7200" fill-rule="nonzero" group-id="1,11" node-id="256" stroke="none" target-height="255.59998" target-width="141.5" target-x="92" target-y="571.6"></path></g><g node-id="417"><path d="M 861.10 571.80 C 861.10 571.80 926.90 641.90 934.60 732.60 C 940.90 806.10 893.10 807.10 878.70 801.10 C 849.40 788.80 819.80 729.50 822.90 680.90" fill="#ff7200" fill-rule="nonzero" group-id="1,12" node-id="261" stroke="none" target-height="235.30005" target-width="121.10004" target-x="819.8" target-y="571.8"></path><path d="M 891.70 814.70 C 885.20 814.70 879.10 813.50 874.30 811.50 C 839.30 796.80 808.30 731.70 811.60 680.10 C 812.00 673.90 817.40 669.20 823.70 669.50 C 829.90 669.90 834.80 675.30 834.30 681.60 C 831.80 719.20 855.10 778.80 883.10 790.50 C 887.20 792.20 899.20 793.50 908.90 786.50 C 920.50 778.00 925.50 759.70 923.30 733.50 C 915.90 648.00 853.50 580.20 852.80 579.50 C 848.50 574.90 848.70 567.70 853.30 563.40 C 857.90 559.10 865.10 559.30 869.40 563.90 C 872.20 566.90 938.00 637.90 946.00 731.50 C 949.80 775.20 935.30 795.60 922.40 804.90 C 912.70 811.90 901.60 814.70 891.70 814.70 Z" fill="#ff7200" fill-rule="nonzero" group-id="1,12" node-id="263" stroke="none" target-height="255.6001" target-width="141.5" target-x="808.3" target-y="559.1"></path></g><g node-id="418"><path d="M 373.60 239.60 C 381.50 250.10 370.10 272.00 348.10 288.50 C 326.10 305.00 301.90 309.90 294.00 299.30 C 286.10 288.80 297.50 266.90 319.50 250.40 C 341.40 233.90 365.60 229.10 373.60 239.60 Z" fill="#ff7200" fill-opacity="0.3" fill-rule="nonzero" group-id="1,13" node-id="268" stroke="none" target-height="80.79999" target-width="95.399994" target-x="286.1" target-y="229.1"></path></g><g node-id="419"><path d="M 665.30 908.80 C 774.50 838.20 850.70 751.40 876.50 621.90 C 906.30 472.20 853.20 159.60 556.90 149.90 C 274.00 140.70 167.50 351.60 164.30 501.20 C 162.00 606.60 183.90 707.90 297.90 809.80 C 367.70 872.40 345.40 912.90 329.40 945.10 C 317.20 969.80 350.90 992.20 398.60 989.60 C 478.80 985.30 585.90 960.00 665.30 908.80 Z" fill="#ff7200" fill-rule="nonzero" group-id="1,14" node-id="273" stroke="none" target-height="851.50006" target-width="744.3" target-x="162" target-y="140.7"></path><path d="M 391.20 1001.20 C 359.30 1001.20 332.30 990.70 321.00 973.50 C 314.20 963.20 313.50 951.30 319.10 940.00 L 320.10 938.00 C 335.90 906.30 352.20 873.70 290.20 818.30 C 165.40 706.70 150.70 595.20 152.80 500.90 C 154.90 401.90 198.00 303.20 267.80 237.00 C 339.90 168.80 439.90 134.70 557.20 138.50 C 661.90 141.90 745.50 181.80 805.40 257.30 C 890.70 364.80 907.90 522.70 887.80 624.00 C 863.70 745.00 795.00 838.60 671.60 918.20 L 671.60 918.20 C 586.90 972.90 475.40 996.70 399.20 1000.80 C 396.40 1001.10 393.80 1001.20 391.20 1001.20 Z M 538.70 161.00 C 434.20 161.00 348.40 192.10 283.40 253.60 C 217.80 315.70 177.50 408.40 175.50 501.50 C 173.50 595.10 187.70 696.20 305.20 801.40 C 380.10 868.50 356.20 916.50 340.30 948.30 L 339.30 950.30 C 337.40 954.30 337.50 957.60 339.80 961.10 C 346.00 970.50 366.80 980.00 397.60 978.40 C 470.90 974.40 578.00 951.70 658.90 899.40 C 776.90 823.10 842.50 734.30 865.20 619.70 C 884.40 523.50 868.20 373.40 787.30 271.50 C 731.80 201.50 654.00 164.40 556.30 161.30 C 550.50 161.10 544.60 161.00 538.70 161.00 Z M 665.30 908.80 L 665.30 908.80 L 665.30 908.80 Z" fill="#ff7200" fill-rule="nonzero" group-id="1,14" node-id="275" stroke="none" target-height="866.5" target-width="757.2" target-x="150.7" target-y="134.7"></path></g><g node-id="420"><path d="M 156.00 376.50 C 157.20 371.00 161.40 366.70 166.80 365.40 C 201.10 357.00 302.90 320.70 543.10 320.80 C 709.90 320.90 835.30 354.70 869.60 360.50 C 875.60 361.50 880.30 366.10 881.50 372.10 L 891.20 420.80 C 893.10 430.80 884.70 439.60 874.70 438.10 C 818.70 429.30 659.40 406.20 532.30 406.90 C 350.60 407.90 214.10 427.60 163.60 436.20 C 153.40 437.90 144.70 428.80 147.00 418.70 L 156.00 376.50 Z" fill="#ff7200" fill-rule="nonzero" group-id="1,15" node-id="280" stroke="none" target-height="118.899994" target-width="748.39996" target-x="144.7" target-y="320.7"></path><path d="M 876.90 449.60 C 875.60 449.60 874.20 449.50 872.80 449.30 C 812.00 439.80 657.00 417.50 532.20 418.30 C 351.40 419.30 215.50 439.00 165.40 447.40 C 156.90 448.80 148.20 446.00 142.30 439.70 C 136.30 433.50 133.90 424.70 135.80 416.20 L 144.90 374.10 L 144.90 374.10 C 147.00 364.30 154.40 356.70 164.10 354.40 C 167.90 353.40 172.50 352.10 178.00 350.60 C 222.80 338.30 327.90 309.40 541.70 309.40 C 542.10 309.40 542.60 309.40 543.00 309.40 C 682.10 309.50 792.80 332.90 846.00 344.10 C 856.90 346.50 865.60 348.30 871.40 349.30 C 882.00 351.00 890.50 359.30 892.60 369.90 L 902.30 418.60 C 903.90 427.00 901.40 435.60 895.50 441.70 C 890.60 446.80 883.90 449.60 876.90 449.60 Z M 537.90 395.50 C 663.20 395.50 815.90 417.30 876.40 426.80 C 877.80 427.00 878.70 426.40 879.20 425.80 C 879.60 425.40 880.30 424.40 880.10 422.90 L 870.40 374.20 C 870.20 372.90 869.10 371.80 867.80 371.60 C 861.60 370.50 852.70 368.70 841.40 366.30 C 788.90 355.20 679.80 332.20 543.10 332.10 C 542.70 332.10 542.20 332.10 541.80 332.10 C 331.10 332.10 228.20 360.40 184.20 372.60 C 178.40 374.20 173.60 375.50 169.60 376.50 C 168.40 376.80 167.50 377.70 167.20 379.00 L 158.10 421.10 C 157.80 422.60 158.40 423.60 159.00 424.00 C 159.40 424.40 160.40 425.20 161.90 425.00 C 212.30 416.50 349.80 396.60 532.20 395.60 C 534.10 395.50 535.90 395.50 537.90 395.50 Z" fill="#ff7200" fill-rule="nonzero" group-id="1,15" node-id="282" stroke="none" target-height="140.20001" target-width="770" target-x="133.9" target-y="309.4"></path></g><g node-id="421"><path d="M 539.80 20.70 C 529.60 20.60 520.70 27.50 518.10 37.30 C 511.70 62.40 496.40 104.50 490.00 113.40 C 479.30 128.00 427.20 165.00 321.40 146.00 C 321.40 146.00 371.00 223.90 456.90 187.70 C 521.80 160.40 423.30 266.90 423.30 266.90 C 498.50 260.90 532.50 258.30 562.70 186.30 C 575.90 154.80 681.90 267.10 737.20 145.70 C 737.20 145.70 632.50 176.10 567.60 114.30 C 567.60 114.30 578.80 78.20 583.80 46.50 C 585.80 33.20 575.80 21.20 562.20 21.00 L 539.80 20.70 Z" fill="#ff7200" fill-rule="nonzero" group-id="1,16" node-id="287" stroke="none" target-height="246.5" target-width="415.80008" target-x="321.4" target-y="20.6"></path><path d="M 423.80 278.20 C 419.40 278.20 415.30 275.70 413.40 271.80 C 411.40 267.60 411.90 262.60 415.10 259.10 C 434.70 237.90 455.80 211.70 464.10 197.10 C 463.20 197.40 462.40 197.70 461.40 198.20 C 367.60 237.60 312.40 152.90 311.80 152.10 C 309.30 148.20 309.40 143.40 311.90 139.70 C 314.40 135.90 318.90 134.00 323.40 134.90 C 422.00 152.70 471.40 119.80 480.80 106.80 C 485.60 100.30 500.50 60.40 507.10 34.70 C 510.90 19.80 524.20 9.50 539.50 9.50 C 539.60 9.50 539.70 9.50 539.90 9.50 L 562.20 9.70 C 572.00 9.80 581.10 14.10 587.30 21.50 C 593.60 28.90 596.30 38.70 594.80 48.30 C 591.00 72.30 583.90 98.40 580.30 110.60 C 640.20 160.90 733.00 135.00 734.00 134.70 C 738.30 133.40 742.90 134.80 745.80 138.20 C 748.70 141.50 749.30 146.40 747.50 150.30 C 706.40 240.50 635.90 213.70 597.90 199.40 C 589.10 196.10 577.40 191.70 572.70 191.70 L 572.70 191.70 C 540.00 268.80 499.00 272.20 424.60 278.20 C 424.30 278.20 424.10 278.20 423.80 278.20 Z M 473.20 171.80 C 478.70 171.80 483.90 173.50 487.60 178.70 C 491.40 184.20 499.70 196.10 451.00 253.10 C 504.90 247.70 528.70 238.30 552.30 181.90 C 561.00 161.20 585.00 170.20 606.20 178.30 C 641.20 191.50 683.70 207.70 715.30 161.90 C 678.50 167.40 609.30 169.60 559.70 122.60 C 556.60 119.60 555.40 115.10 556.70 111.00 C 556.80 110.70 567.80 75.40 572.50 44.80 C 573.00 41.70 572.20 38.60 570.10 36.20 C 568.00 33.80 565.30 32.40 562.10 32.40 L 539.80 32.20 L 539.80 32.20 L 539.70 32.20 C 534.80 32.20 530.60 35.50 529.40 40.20 C 523.40 63.80 507.50 109.00 499.40 120.10 C 485.50 139.20 437.50 169.30 350.60 161.40 C 370.60 178.70 405.40 197.10 452.70 177.20 C 457.20 175.30 465.40 171.80 473.20 171.80 Z" fill="#ff7200" fill-rule="nonzero" group-id="1,16" node-id="289" stroke="none" target-height="268.7" target-width="440" target-x="309.3" target-y="9.5"></path></g><path d="M 627.20 628.70 C 627.20 637.80 639.90 645.20 655.40 645.20 C 670.90 645.20 683.60 637.80 683.60 628.70 C 683.60 619.60 670.90 612.20 655.40 612.20 C 639.90 612.20 627.20 619.70 627.20 628.70 L 627.20 628.70 Z" fill="#ff7200" fill-rule="nonzero" group-id="1" node-id="292" stroke="none" target-height="33" target-width="56.399963" target-x="627.2" target-y="612.2"></path><path d="M 389.70 606.90 C 405.30 609.70 416.10 619.60 414.20 628.60 C 412.30 637.50 398.60 642.20 383.60 639.40 C 368.60 636.60 357.20 626.70 359.10 617.70 C 361.00 608.70 374.70 603.60 389.70 606.90 L 389.70 606.90 Z" fill="#ff7200" fill-rule="nonzero" group-id="1" node-id="294" stroke="none" target-height="38.600037" target-width="58.900055" target-x="357.19998" target-y="603.6"></path></g><g node-id="407"><path d="M 201.10 579.30 C 201.10 579.30 139.80 644.60 132.60 729.20 C 126.70 797.70 171.30 798.60 184.70 793.00 C 212.00 781.50 239.60 726.30 236.70 681.00" fill="#e83743" fill-rule="nonzero" group-id="2" node-id="299" stroke="none" target-height="219.29999" target-width="112.9" target-x="126.700005" target-y="579.3"></path><path d="M 172.60 805.80 C 163.40 805.80 153.00 803.20 144.00 796.70 C 132.00 788.00 118.50 769.00 122.00 728.30 C 129.50 641.10 190.70 574.80 193.40 572.10 C 197.40 567.80 204.10 567.60 208.40 571.60 C 212.70 575.60 212.90 582.30 208.90 586.60 C 208.00 587.60 150.00 650.60 143.20 730.10 C 141.10 754.50 145.70 771.60 156.60 779.50 C 165.60 786.00 176.90 784.80 180.60 783.20 C 206.70 772.20 228.30 716.70 226.10 681.70 C 225.70 675.90 230.20 670.80 236.00 670.40 C 241.80 670.10 246.90 674.50 247.30 680.30 C 250.40 728.40 221.50 789.10 188.90 802.80 C 184.40 804.70 178.70 805.80 172.60 805.80 Z" fill="#231815" fill-rule="nonzero" group-id="2" node-id="301" stroke="none" target-height="238.20001" target-width="131.9" target-x="118.50001" target-y="567.6"></path></g><g node-id="408"><path d="M 835.30 567.80 C 835.30 567.80 896.60 633.10 903.80 717.70 C 909.70 786.20 865.10 787.10 851.70 781.50 C 824.40 770.00 796.80 714.80 799.70 669.50" fill="#e83743" fill-rule="nonzero" group-id="3" node-id="306" stroke="none" target-height="219.29999" target-width="112.89996" target-x="796.8" target-y="567.8"></path><path d="M 863.80 794.20 C 857.70 794.20 852.10 793.10 847.60 791.20 C 815.00 777.50 786.10 716.80 789.20 668.70 C 789.60 662.90 794.60 658.50 800.50 658.80 C 806.30 659.20 810.80 664.20 810.40 670.10 C 808.10 705.10 829.80 760.70 855.90 771.60 C 859.70 773.20 870.90 774.40 879.90 767.90 C 890.70 760.00 895.40 742.90 893.30 718.50 C 886.40 638.80 828.20 575.60 827.60 575.00 C 823.60 570.70 823.80 564.00 828.10 560.00 C 832.40 556.00 839.10 556.20 843.10 560.50 C 845.70 563.30 907.00 629.50 914.50 716.70 C 918.00 757.40 904.50 776.40 892.50 785.10 C 883.40 791.60 873.00 794.20 863.80 794.20 Z" fill="#231815" fill-rule="nonzero" group-id="3" node-id="308" stroke="none" target-height="238.20001" target-width="131.90002" target-x="786.1" target-y="556"></path></g><g node-id="409"><path d="M 380.90 258.20 C 388.30 268.00 377.60 288.40 357.10 303.80 C 336.60 319.20 314.00 323.70 306.70 313.90 C 299.30 304.10 310.00 283.70 330.50 268.30 C 350.90 252.90 373.50 248.40 380.90 258.20 Z" fill="#fbdad1" fill-opacity="0.3" fill-rule="nonzero" group-id="4" node-id="313" stroke="none" target-height="75.30002" target-width="89" target-x="299.3" target-y="248.4"></path></g><g node-id="410"><path d="M 652.80 881.90 C 754.60 816.10 825.60 735.20 849.60 614.50 C 877.40 475.00 827.90 183.60 551.70 174.60 C 288.10 166.00 188.80 362.60 185.80 502.00 C 183.70 600.20 204.10 694.60 310.30 789.60 C 375.40 847.90 354.60 885.70 339.70 915.70 C 328.30 938.70 359.70 959.60 404.20 957.20 C 479.00 953.20 578.80 929.60 652.80 881.90 Z" fill="#e83743" fill-rule="nonzero" group-id="5" node-id="318" stroke="none" target-height="793.6" target-width="693.7001" target-x="183.69998" target-y="166"></path><path d="M 397.30 968.00 C 367.60 968.00 342.40 958.20 331.90 942.20 C 325.60 932.60 324.90 921.50 330.10 911.00 L 331.00 909.10 C 345.70 879.60 360.90 849.20 303.10 797.50 C 186.90 693.50 173.20 589.60 175.10 501.70 C 177.10 409.40 217.20 317.40 282.30 255.70 C 349.50 192.10 442.70 160.40 552.00 163.90 C 649.60 167.10 727.50 204.30 783.30 274.60 C 862.80 374.80 878.80 522.00 860.10 616.40 C 837.60 729.20 773.60 816.40 658.60 890.60 L 658.60 890.60 C 579.70 941.60 475.70 963.80 404.70 967.60 C 402.20 967.90 399.70 968.00 397.30 968.00 Z M 534.80 184.90 C 437.40 184.90 357.40 213.90 296.90 271.20 C 235.80 329.10 198.20 415.50 196.30 502.20 C 194.40 589.40 207.70 683.70 317.20 781.70 C 387.00 844.20 364.70 889.00 349.90 918.60 L 349.00 920.50 C 347.20 924.20 347.30 927.30 349.50 930.60 C 355.30 939.40 374.70 948.20 403.40 946.70 C 471.70 943.00 571.50 921.80 646.90 873.10 C 756.90 802.00 818.00 719.20 839.20 612.40 C 857.10 522.70 842.00 382.80 766.60 287.90 C 714.90 222.70 642.40 188.10 551.30 185.20 C 545.80 185.00 540.30 184.90 534.80 184.90 Z M 652.80 881.90 L 652.80 881.90 L 652.80 881.90 Z" fill="#231815" fill-rule="nonzero" group-id="5" node-id="320" stroke="none" target-height="807.6" target-width="705.6" target-x="173.2" target-y="160.4"></path></g><g node-id="411"><path d="M 694.80 423.40 C 694.80 423.40 738.20 454.80 741.80 538.30 C 745.90 633.30 691.70 714.00 525.50 714.00 C 370.90 714.00 315.80 666.60 302.90 582.50 C 287.10 478.90 348.30 421.80 348.30 421.80 C 348.30 421.80 464.60 412.60 528.80 414.10 C 592.90 415.60 694.80 423.40 694.80 423.40 Z" fill="#ffffff" fill-rule="nonzero" group-id="6" id="SVGID_2_" node-id="35" stroke="none" target-height="301.4" target-width="458.80002" target-x="287.1" target-y="412.6"></path></g><g node-id="412"><path d="M 178.10 385.80 C 179.20 380.70 183.10 376.70 188.20 375.50 C 220.20 367.70 315.00 333.80 538.90 333.90 C 694.40 334.00 811.20 365.50 843.20 370.90 C 848.80 371.80 853.20 376.10 854.30 381.70 L 863.30 427.10 C 865.10 436.40 857.20 444.60 847.90 443.20 C 795.70 435.00 647.20 413.50 528.80 414.10 C 359.50 415.00 232.20 433.40 185.20 441.40 C 175.70 443.00 167.60 434.50 169.70 425.10 L 178.10 385.80 Z" fill="#c49772" fill-rule="nonzero" group-id="7" node-id="329" stroke="none" target-height="110.80002" target-width="697.4999" target-x="167.6" target-y="333.8"></path><path d="M 850.00 453.90 C 848.80 453.90 847.50 453.80 846.20 453.60 C 789.50 444.70 645.10 424.00 528.80 424.70 C 360.30 425.60 233.60 444.00 186.90 451.80 C 179.00 453.10 170.90 450.50 165.40 444.60 C 159.80 438.80 157.60 430.60 159.30 422.70 L 167.80 383.50 L 167.80 383.50 C 169.80 374.40 176.70 367.30 185.70 365.10 C 189.20 364.20 193.50 363.00 198.70 361.60 C 240.50 350.10 338.40 323.20 537.70 323.20 C 538.10 323.20 538.50 323.20 538.90 323.20 C 668.50 323.30 771.70 345.10 821.30 355.50 C 831.50 357.70 839.60 359.40 845.00 360.30 C 854.90 361.90 862.80 369.60 864.80 379.50 L 873.80 424.90 C 875.30 432.70 873.00 440.70 867.50 446.40 C 862.80 451.30 856.50 453.90 850.00 453.90 Z M 534.00 403.50 C 650.80 403.50 793.10 423.80 849.50 432.70 C 850.80 432.90 851.60 432.30 852.10 431.80 C 852.50 431.40 853.10 430.50 852.90 429.10 L 843.90 383.70 C 843.70 382.50 842.70 381.50 841.50 381.30 C 835.70 380.30 827.40 378.60 816.90 376.40 C 768.00 366.10 666.30 344.60 538.90 344.50 C 538.50 344.50 538.10 344.50 537.70 344.50 C 341.30 344.50 245.40 370.90 204.40 382.20 C 199.00 383.70 194.50 384.90 190.80 385.80 C 189.70 386.10 188.80 386.90 188.60 388.10 L 180.10 427.30 C 179.80 428.70 180.40 429.60 180.90 430.00 C 181.30 430.40 182.20 431.10 183.60 430.90 C 230.60 423.00 358.70 404.40 528.70 403.50 C 530.50 403.50 532.20 403.50 534.00 403.50 Z" fill="#231815" fill-rule="nonzero" group-id="7" node-id="331" stroke="none" target-height="130.69998" target-width="717.69995" target-x="157.6" target-y="323.2"></path></g><g node-id="413"><path d="M 535.80 54.20 C 526.30 54.10 518.00 60.50 515.60 69.70 C 509.60 93.10 495.40 132.30 489.40 140.60 C 479.40 154.20 430.90 188.70 332.30 171.00 C 332.30 171.00 378.50 243.60 458.60 209.90 C 519.10 184.50 427.30 283.70 427.30 283.70 C 497.40 278.10 529.10 275.70 557.20 208.60 C 569.50 179.20 668.30 283.90 719.80 170.80 C 719.80 170.80 622.20 199.10 561.70 141.50 C 561.70 141.50 572.10 107.90 576.80 78.30 C 578.70 65.90 569.30 54.70 556.70 54.50 L 535.80 54.20 Z" fill="#8dc21f" fill-rule="nonzero" group-id="8" node-id="336" stroke="none" target-height="229.79999" target-width="387.5" target-x="332.3" target-y="54.1"></path><path d="M 427.70 294.20 C 423.60 294.20 419.80 291.90 418.00 288.20 C 416.10 284.30 416.60 279.60 419.60 276.40 C 437.90 256.60 457.50 232.20 465.30 218.60 C 464.50 218.90 463.70 219.20 462.80 219.60 C 375.40 256.30 323.90 177.40 323.40 176.60 C 321.10 173.00 321.20 168.50 323.50 165.00 C 325.80 161.50 330.00 159.70 334.20 160.50 C 426.10 177.10 472.10 146.40 480.90 134.30 C 485.40 128.20 499.30 91.10 505.40 67.10 C 508.90 53.20 521.30 43.60 535.60 43.60 C 535.70 43.60 535.80 43.60 536.00 43.60 L 556.80 43.80 C 565.90 43.90 574.40 47.90 580.20 54.80 C 586.10 61.70 588.60 70.80 587.20 79.80 C 583.70 102.20 577.00 126.50 573.70 137.90 C 629.40 184.80 715.90 160.70 716.80 160.40 C 720.80 159.20 725.10 160.50 727.80 163.70 C 730.50 166.80 731.10 171.30 729.40 175.00 C 691.10 259.10 625.40 234.10 590.00 220.80 C 581.80 217.70 570.90 213.60 566.50 213.60 L 566.50 213.60 C 536.00 285.50 497.80 288.60 428.50 294.20 C 428.20 294.20 428.00 294.20 427.70 294.20 Z M 473.70 195.00 C 478.80 195.00 483.70 196.60 487.10 201.40 C 490.60 206.50 498.40 217.60 453.00 270.70 C 503.20 265.70 525.40 256.90 547.40 204.30 C 555.50 185.00 577.90 193.40 597.60 200.90 C 630.20 213.20 669.80 228.30 699.30 185.60 C 665.00 190.70 600.50 192.80 554.30 149.00 C 551.40 146.20 550.30 142.00 551.50 138.20 C 551.60 137.90 561.80 105.00 566.20 76.50 C 566.70 73.60 565.90 70.70 564.00 68.50 C 562.10 66.30 559.50 65.00 556.50 65.00 L 535.70 64.80 L 535.70 64.80 L 535.60 64.80 C 531.00 64.80 527.10 67.90 526.00 72.30 C 520.40 94.30 505.60 136.40 498.00 146.80 C 485.00 164.60 440.30 192.70 359.30 185.30 C 377.90 201.40 410.40 218.60 454.50 200.00 C 458.80 198.30 466.50 195.00 473.70 195.00 Z" fill="#231815" fill-rule="nonzero" group-id="8" node-id="338" stroke="none" target-height="250.6" target-width="409.99997" target-x="321.1" target-y="43.6"></path></g><path d="M 675.20 593.90 C 675.20 602.40 687.00 609.30 701.50 609.30 C 716.00 609.30 727.80 602.40 727.80 593.90 C 727.80 585.40 716.00 578.50 701.50 578.50 C 687.00 578.60 675.20 585.50 675.20 593.90 L 675.20 593.90 Z" fill="#ffaeaa" fill-rule="nonzero" node-id="341" stroke="none" target-height="30.799988" target-width="52.599976" target-x="675.2" target-y="578.5"></path><g node-id="414"><g node-id="422"><path d="M 559.00 653.90 C 559.00 675.60 545.00 661.70 527.60 661.70 C 510.30 661.70 496.20 675.50 496.20 653.90 C 496.20 632.20 510.20 614.70 527.60 614.70 C 545.00 614.70 559.00 632.30 559.00 653.90 Z" fill="#000000" fill-rule="nonzero" group-id="9,17" node-id="347" stroke="none" target-height="60.899963" target-width="62.799988" target-x="496.2" target-y="614.7"></path></g></g><path d="M 426.70 465.50 L 426.70 465.50 C 447.50 465.50 464.30 482.30 464.30 503.10 L 464.30 540.70 C 464.30 550.70 460.30 560.20 453.30 567.30 C 446.20 574.40 436.70 578.30 426.70 578.30 L 426.70 578.30 C 405.90 578.30 389.10 561.50 389.10 540.70 L 389.10 503.10 C 389.10 482.30 406.00 465.50 426.70 465.50 Z" fill="#000000" fill-rule="nonzero" node-id="351" stroke="none" target-height="112.79999" target-width="75.19998" target-x="389.1" target-y="465.5"></path><path d="M 421.40 465.50 L 421.40 465.50 C 445.10 465.50 464.40 484.70 464.40 508.50 L 464.40 551.50 C 464.40 562.90 459.90 573.80 451.80 581.90 C 443.70 590.00 432.80 594.50 421.40 594.50 L 421.40 594.50 C 410.00 594.50 399.10 590.00 391.00 581.90 C 382.90 573.80 378.40 562.90 378.40 551.50 L 378.40 508.50 C 378.40 484.80 397.60 465.50 421.40 465.50 Z" fill="#ffffff" fill-rule="nonzero" node-id="353" stroke="none" target-height="129" target-width="85.99997" target-x="378.4" target-y="465.5"></path><path d="M 464.30 505.40 C 464.30 514.40 460.70 522.90 454.40 529.30 C 448.10 535.60 439.50 539.20 430.50 539.20 C 421.50 539.20 412.90 535.60 406.60 529.30 C 400.30 523.00 396.70 514.40 396.70 505.40 C 396.70 496.40 400.30 487.90 406.60 481.50 C 412.90 475.10 421.50 471.60 430.50 471.60 C 439.50 471.60 448.00 475.20 454.40 481.50 C 460.80 487.80 464.30 496.40 464.30 505.40 Z" fill="#000000" fill-rule="nonzero" node-id="355" stroke="none" target-height="67.600006" target-width="67.599976" target-x="396.7" target-y="471.6"></path><path d="M 421.40 465.50 L 421.40 465.50 C 445.10 465.50 464.40 484.70 464.40 508.50 L 464.40 551.50 C 464.40 562.90 459.90 573.80 451.80 581.90 C 443.70 590.00 432.80 594.50 421.40 594.50 L 421.40 594.50 C 410.00 594.50 399.10 590.00 391.00 581.90 C 382.90 573.80 378.40 562.90 378.40 551.50 L 378.40 508.50 C 378.40 484.80 397.60 465.50 421.40 465.50 Z" fill="none" node-id="357" stroke="#000000" stroke-linecap="butt" stroke-width="6.2613" target-height="129" target-width="85.99997" target-x="378.4" target-y="465.5"></path><path d="M 630.90 465.50 L 630.90 465.50 C 654.60 465.50 673.90 484.70 673.90 508.50 L 673.90 551.50 C 673.90 562.90 669.40 573.80 661.30 581.90 C 653.20 590.00 642.30 594.50 630.90 594.50 L 630.90 594.50 C 619.50 594.50 608.60 590.00 600.50 581.90 C 592.40 573.80 587.90 562.90 587.90 551.50 L 587.90 508.50 C 587.90 484.80 607.10 465.50 630.90 465.50 Z" fill="#ffffff" fill-rule="nonzero" node-id="359" stroke="none" target-height="129" target-width="86" target-x="587.9" target-y="465.5"></path><path d="M 673.90 505.40 C 673.90 514.40 670.30 522.90 664.00 529.30 C 657.70 535.60 649.10 539.20 640.10 539.20 C 631.10 539.20 622.60 535.60 616.20 529.30 C 609.90 523.00 606.30 514.40 606.30 505.40 C 606.30 496.40 609.90 487.90 616.20 481.50 C 622.50 475.20 631.10 471.60 640.10 471.60 C 649.10 471.60 657.60 475.20 664.00 481.50 C 670.30 487.90 673.90 496.40 673.90 505.40 Z" fill="#000000" fill-rule="nonzero" node-id="361" stroke="none" target-height="67.600006" target-width="67.60004" target-x="606.3" target-y="471.6"></path><path d="M 630.90 465.50 L 630.90 465.50 C 654.60 465.50 673.90 484.70 673.90 508.50 L 673.90 551.50 C 673.90 562.90 669.40 573.80 661.30 581.90 C 653.20 590.00 642.30 594.50 630.90 594.50 L 630.90 594.50 C 619.50 594.50 608.60 590.00 600.50 581.90 C 592.40 573.80 587.90 562.90 587.90 551.50 L 587.90 508.50 C 587.90 484.80 607.10 465.50 630.90 465.50 Z" fill="none" node-id="363" stroke="#000000" stroke-linecap="butt" stroke-width="6.2613" target-height="129" target-width="86" target-x="587.9" target-y="465.5"></path><path d="M 868.00 444.60 L 917.40 444.60 L 917.40 469.30 L 868.00 469.30 L 868.00 444.60 Z" fill="url(#SVGID_1_)" fill-opacity="0.3" fill-rule="nonzero" node-id="365" stroke="none" target-height="24.699982" target-width="49.400024" target-x="868" target-y="444.6"></path><path d="M 868.00 480.30 L 917.40 480.30 L 917.40 488.50 L 868.00 488.50 L 868.00 480.30 Z" fill="#ffffff" fill-opacity="0.15" fill-rule="nonzero" node-id="367" stroke="none" target-height="8.200043" target-width="49.400024" target-x="868" target-y="480.3"></path><path d="M 868.00 494.00 L 917.40 494.00 L 917.40 496.70 L 868.00 496.70 L 868.00 494.00 Z" fill="#ffffff" fill-opacity="0.15" fill-rule="nonzero" node-id="369" stroke="none" target-height="2.7000122" target-width="49.400024" target-x="868" target-y="494"></path><g node-id="415"><path d="M 771.40 273.20 C 784.10 281.40 798.70 273.80 803.20 262.50 C 807.70 251.20 802.70 237.00 788.60 233.50 C 756.50 225.60 728.90 260.60 728.90 260.60 C 728.90 260.60 754.20 262.20 771.40 273.20 Z" fill="url(#SVGID_3_)" fill-opacity="0.58" fill-rule="nonzero" group-id="10" node-id="373" stroke="none" target-height="55.799988" target-width="78.80005" target-x="728.89996" target-y="225.6"></path><path d="M 777.00 258.10 C 791.90 256.00 797.20 234.60 780.90 232.40 C 783.40 232.50 786.00 232.90 788.60 233.50 C 802.70 236.90 807.60 251.20 803.20 262.50 C 798.70 273.80 784.10 281.50 771.40 273.20 C 754.20 262.10 728.90 260.60 728.90 260.60 C 761.00 252.10 769.70 259.10 777.00 258.10 Z" fill="url(#SVGID_4_)" fill-opacity="0.58" fill-rule="nonzero" group-id="10" node-id="375" stroke="none" target-height="49.100006" target-width="78.70001" target-x="728.89996" target-y="232.4"></path><path d="M 765.00 264.60 C 788.20 273.50 803.50 247.20 791.90 234.60 C 803.50 239.30 807.40 252.10 803.20 262.50 C 798.70 273.80 784.10 281.50 771.40 273.30 C 754.20 262.20 728.90 260.70 728.90 260.70 C 728.90 260.70 746.00 257.30 765.00 264.60 Z" fill="url(#SVGID_5_)" fill-opacity="0.58" fill-rule="nonzero" group-id="10" node-id="377" stroke="none" target-height="46.90001" target-width="78.50006" target-x="728.89996" target-y="234.59999"></path><path d="M 779.30 268.30 C 798.40 267.10 802.20 246.60 795.00 236.10 C 799.60 238.90 802.60 243.20 804.00 247.90 C 806.30 271.90 781.30 278.60 772.20 273.70 C 772.00 273.50 771.70 273.40 771.50 273.30 C 771.20 273.10 770.90 272.90 770.50 272.70 C 753.40 262.20 729.00 260.80 729.00 260.80 C 757.40 258.40 756.00 269.80 779.30 268.30 Z" fill="url(#SVGID_6_)" fill-opacity="0.58" fill-rule="nonzero" group-id="10" node-id="379" stroke="none" target-height="42.499985" target-width="77.29999" target-x="729" target-y="236.10002"></path><path d="M 771.70 272.90 C 784.60 281.20 799.20 273.90 803.50 262.80 C 807.80 251.70 802.60 237.70 788.40 234.10 C 756.00 225.80 728.70 259.80 728.70 259.80 C 728.70 259.80 754.30 261.80 771.70 272.90 Z" fill="url(#SVGID_7_)" fill-opacity="0.58" fill-rule="nonzero" group-id="10" node-id="381" stroke="none" target-height="55.40001" target-width="79.099976" target-x="728.7" target-y="225.8"></path></g><path d="M 855.50 329.40 C 858.50 351.80 880.30 362.10 896.60 357.00 C 912.90 351.90 923.40 333.30 914.10 313.60 C 892.80 268.70 829.50 268.00 829.50 268.00 C 829.50 268.00 851.40 299.20 855.50 329.40 Z" fill="url(#SVGID_8_)" fill-rule="nonzero" node-id="384" stroke="none" target-height="94.100006" target-width="93.900085" target-x="829.49994" target-y="268"></path><path d="M 876.90 322.30 C 893.00 338.00 920.80 324.70 908.00 303.50 C 910.30 306.50 912.20 309.90 914.00 313.50 C 923.40 333.20 912.80 351.90 896.50 356.90 C 880.20 361.90 858.40 351.70 855.40 329.30 C 851.40 299.00 829.40 267.90 829.40 267.90 C 868.40 298.00 869.00 314.60 876.90 322.30 Z" fill="url(#SVGID_9_)" fill-rule="nonzero" node-id="386" stroke="none" target-height="94" target-width="94" target-x="829.4" target-y="267.9"></path><path d="M 858.80 314.00 C 870.90 349.40 913.20 343.50 915.90 318.40 C 921.70 336.20 911.50 352.50 896.50 357.10 C 880.20 362.10 858.40 351.90 855.40 329.50 C 851.40 299.20 829.40 268.10 829.40 268.10 C 829.40 268.10 848.90 285.10 858.80 314.00 Z" fill="url(#SVGID_10_)" fill-rule="nonzero" node-id="388" stroke="none" target-height="94" target-width="92.29999" target-x="829.4" target-y="268.1"></path><path d="M 868.20 334.20 C 887.20 355.50 912.70 341.40 917.30 323.50 C 918.60 331.40 916.80 338.80 913.00 344.70 C 889.40 369.10 859.00 345.90 855.90 330.60 C 855.90 330.20 855.70 329.80 855.70 329.40 C 855.60 328.90 855.60 328.30 855.50 327.70 C 850.90 298.10 829.70 268.00 829.70 268.00 C 858.50 299.50 845.00 308.20 868.20 334.20 Z" fill="url(#SVGID_11_)" fill-rule="nonzero" node-id="390" stroke="none" target-height="101.10004" target-width="88.900024" target-x="829.7" target-y="268"></path><path d="M 854.80 329.80 C 857.40 352.20 879.30 361.90 895.80 356.50 C 912.40 351.10 923.40 332.20 914.40 312.70 C 893.70 268.30 829.70 268.90 829.70 268.90 C 829.70 268.90 851.30 299.70 854.80 329.80 Z" fill="url(#SVGID_12_)" fill-rule="nonzero" node-id="392" stroke="none" target-height="93.600006" target-width="93.70001" target-x="829.7" target-y="268.3"></path><path d="M 837.10 482.90 C 824.80 517.10 849.30 547.20 877.00 551.50 C 904.70 555.90 934.20 536.50 935.20 501.70 C 937.20 422.30 844.60 376.60 844.60 376.60 C 844.60 376.60 853.70 436.70 837.10 482.90 Z" fill="url(#SVGID_13_)" fill-rule="nonzero" node-id="394" stroke="none" target-height="179.30002" target-width="112.400024" target-x="824.8" target-y="376.6"></path><path d="M 874.10 487.90 C 886.10 521.70 936.90 522.40 933.90 483.10 C 934.90 489.10 935.30 495.30 935.20 501.70 C 934.40 536.50 904.70 555.80 877.00 551.50 C 849.30 547.20 824.80 517.10 837.10 482.90 C 853.70 436.70 844.50 376.60 844.50 376.60 C 879.70 447.10 868.10 471.30 874.10 487.90 Z" fill="url(#SVGID_14_)" fill-rule="nonzero" node-id="396" stroke="none" target-height="179.19998" target-width="112.10004" target-x="824.8" target-y="376.6"></path><path d="M 853.60 463.20 C 845.10 522.40 911.70 543.80 934.40 509.90 C 929.60 539.50 902.50 555.60 877.10 551.50 C 849.40 547.20 824.90 517.10 837.20 482.90 C 853.80 436.70 844.60 376.60 844.60 376.60 C 844.60 376.60 860.60 414.80 853.60 463.20 Z" fill="url(#SVGID_15_)" fill-rule="nonzero" node-id="398" stroke="none" target-height="178.99997" target-width="109.50006" target-x="824.89996" target-y="376.6"></path><path d="M 852.20 498.60 C 864.30 542.50 912.40 540.50 932.50 518.00 C 928.50 530.20 920.30 539.60 910.30 545.40 C 857.30 563.70 829.90 508.90 836.60 484.80 C 836.90 484.20 837.00 483.50 837.20 482.90 C 837.50 482.00 837.80 481.20 838.10 480.30 C 853.40 434.60 844.60 376.60 844.60 376.60 C 863.80 442.10 837.40 445.00 852.20 498.60 Z" fill="url(#SVGID_16_)" fill-rule="nonzero" node-id="400" stroke="none" target-height="187.1" target-width="102.599915" target-x="829.9001" target-y="376.6"></path><path d="M 836.80 483.00 C 824.30 517.20 848.90 547.20 876.70 551.40 C 904.60 555.70 934.20 536.30 935.30 501.60 C 937.60 422.40 844.60 376.90 844.60 376.90 C 844.60 376.90 853.60 436.90 836.80 483.00 Z" fill="url(#SVGID_17_)" fill-rule="nonzero" node-id="402" stroke="none" target-height="178.80002" target-width="113.29999" target-x="824.3" target-y="376.9"></path><path d="M 327.80 600.30 C 327.80 608.80 339.60 615.70 354.10 615.70 C 368.60 615.70 380.40 608.80 380.40 600.30 C 380.40 591.80 368.60 584.90 354.10 584.90 C 339.60 585.00 327.80 591.90 327.80 600.30 L 327.80 600.30 Z" fill="#ffaeaa" fill-rule="nonzero" node-id="404" stroke="none" target-height="30.799988" target-width="52.600006" target-x="327.8" target-y="584.9"></path></svg>